<svg xmlns="http://www.w3.org/2000/svg" xmlns:xlink="http://www.w3.org/1999/xlink" preserveAspectRatio="xMidYMid meet" version="1.0" viewBox="2.7 2.7 30.6 30.3" zoomAndPan="magnify" style="fill: rgb(0, 0, 0);" original_string_length="709"><g id="__id106_sax62fpom5"><path d="M22.238 18.004l9.883-9.883c1.172-1.171 1.172-3.071 0-4.243-1.172-1.171-3.07-1.171-4.242 0l-9.883 9.883-9.883-9.882c-1.171-1.172-3.071-1.172-4.243 0-1.171 1.171-1.171 3.071 0 4.243l9.883 9.882-9.907 9.907c-1.171 1.171-1.171 3.071 0 4.242.585.586 1.354.879 2.121.879s1.536-.293 2.122-.879l9.906-9.906 9.882 9.882c.586.586 1.354.879 2.121.879s1.535-.293 2.121-.879c1.172-1.171 1.172-3.071 0-4.242l-9.881-9.883z" style="fill: rgb(255, 49, 49);"/></g></svg>